<svg xmlns="http://www.w3.org/2000/svg" viewBox="0 0 178.94 24.16"><defs><style>.cls-1{fill:#fff;}.cls-2{fill:#fa614b;}.cls-3{fill:#8cc0ff;}.cls-4{fill:#00c8c7;}</style></defs><title>Displayr_Logo</title><g id="Layer_2" data-name="Layer 2"><g id="Layer_1-2" data-name="Layer 1"><g id="Logo"><rect class="cls-1" x="27.94" y="0.34" width="4.4" height="23.49" rx="0.64" ry="0.64"/><path class="cls-1" d="M50.35,9.93c-2.72-1.11-4-2.18-4-3.76a2.67,2.67,0,0,1,3-2.35c1.85,0,4.4,1.68,4.67,1.85a.88.88,0,0,0,1.17-.4l1.28-1.91a.84.84,0,0,0-.2-1.11A11.79,11.79,0,0,0,49.55,0C44.21,0,42,3.46,42,6.44c0,4,3.15,6,6.3,7.25,2.82,1.14,4.27,2.31,4.27,4a2.8,2.8,0,0,1-3.06,2.59c-2.18,0-4.9-2-5.06-2.08a.77.77,0,0,0-1.14.23L42.1,20.53c-.3.54-.14.71.17,1a10.76,10.76,0,0,0,7.38,2.62c4.73,0,7.71-3.19,7.71-6.65C57.36,13.19,53.61,11.24,50.35,9.93Z"/><path class="cls-1" d="M75.21.34H67.33a.64.64,0,0,0-.64.63V23.18a.64.64,0,0,0,.64.64h3.08a.66.66,0,0,0,.64-.64V15.3h4.2a7.55,7.55,0,0,0,7.48-7.55A7.5,7.5,0,0,0,75.21.34Zm-.27,10.87H71.05V4.46h3.89A3.35,3.35,0,0,1,78.4,7.72,3.46,3.46,0,0,1,74.94,11.21Z"/><path class="cls-1" d="M104.5,19.79H96V1a.66.66,0,0,0-.64-.63H92.22a.63.63,0,0,0-.63.63V23.18a.63.63,0,0,0,.63.64H104.5a.64.64,0,0,0,.64-.64V20.43A.64.64,0,0,0,104.5,19.79Z"/><path class="cls-1" d="M123.49.37a.57.57,0,0,0-.57-.37h-.33a.6.6,0,0,0-.57.37L111.58,23a.59.59,0,0,0,.57.87h2.92a1,1,0,0,0,1-.67l1.65-3.62h10l1.64,3.62a1,1,0,0,0,1,.67h2.92a.59.59,0,0,0,.57-.87ZM119.33,15.8l3.29-7.38h.1l3.36,7.38Z"/><path class="cls-1" d="M155.17.34h-3.46a.65.65,0,0,0-.54.3l-5.36,7.71L140.44.64a.65.65,0,0,0-.54-.3h-3.42a.62.62,0,0,0-.54,1l7.65,11.2V23.18a.64.64,0,0,0,.64.64h3.09a.66.66,0,0,0,.63-.64V12.48L155.7,1.31A.62.62,0,0,0,155.17.34Z"/><path class="cls-1" d="M173.4,14.53a7.35,7.35,0,0,0,5.54-7A7.27,7.27,0,0,0,171.46.34h-8.32a.42.42,0,0,0-.44.43V23.38a.44.44,0,0,0,.44.44h.6c.34,0,.54-.2.54-.44V14.76h6.17c.44,0,.81,0,1.24,0l4.87,8.79a.47.47,0,0,0,.47.3h1c.33,0,.4-.33.23-.6Zm-2-1.18h-7.08V1.88h7.05a5.79,5.79,0,0,1,6,5.64A5.86,5.86,0,0,1,171.39,13.35Z"/><path class="cls-2" d="M9.81.44C9.4.4,9,.37,8.56.37H.6A.63.63,0,0,0,0,1V18H4.33V4.43H8.15a8.12,8.12,0,0,1,1.66.17V.44Z"/><path class="cls-3" d="M19.72,10.17H15.49a8.47,8.47,0,0,1,.21,1.91,7.41,7.41,0,0,1-7.55,7.68H0v3.46a.63.63,0,0,0,.6.63h8A11.78,11.78,0,0,0,20.33,12.08a10.94,10.94,0,0,0-.16-1.91Z"/><path class="cls-4" d="M11.6.77V5.21a7.18,7.18,0,0,1,3.23,3.17h4.89A11.81,11.81,0,0,0,11.6.77Z"/></g></g></g></svg>